<?xml version="1.0" standalone="no"?><!DOCTYPE svg PUBLIC "-//W3C//DTD SVG 1.1//EN" "http://www.w3.org/Graphics/SVG/1.1/DTD/svg11.dtd"><svg t="1740818836111" class="icon" viewBox="0 0 1024 1024" version="1.1" xmlns="http://www.w3.org/2000/svg" p-id="1148" xmlns:xlink="http://www.w3.org/1999/xlink" width="48" height="48"><path d="M159.3344 868.864m-27.3408 0a27.3408 27.3408 0 1 0 54.6816 0 27.3408 27.3408 0 1 0-54.6816 0Z" fill="#C5DAFF" p-id="1149"></path><path d="M786.8928 877.6704m-27.3408 0a27.3408 27.3408 0 1 0 54.6816 0 27.3408 27.3408 0 1 0-54.6816 0Z" fill="#C5DAFF" p-id="1150"></path><path d="M836.5056 287.3856m-49.664 0a49.664 49.664 0 1 0 99.328 0 49.664 49.664 0 1 0-99.328 0Z" fill="#FDF0CD" p-id="1151"></path><path d="M116.6848 211.968l73.1648 38.5024a13.312 13.312 0 0 0 6.0416 1.4848 13.056 13.056 0 0 0 6.0928-24.6272l-73.1136-38.5024a13.056 13.056 0 1 0-12.1856 23.1424zM217.1904 292.4544l-97.28-53.0944A13.056 13.056 0 0 0 107.52 262.2976L204.8 315.392a13.056 13.056 0 1 0 12.544-22.9376zM209.92 347.4432l-73.216-42.3424A13.056 13.056 0 0 0 123.648 327.68l73.3184 42.3424A13.056 13.056 0 1 0 209.92 347.4432z" fill="#E2E5F1" p-id="1152"></path><path d="M820.9408 624.64l80.5376-80.5376a44.032 44.032 0 0 0 0-62.208l-80.5376-80.384a44.0832 44.0832 0 0 1-12.9024-31.1296V256.512a43.9808 43.9808 0 0 0-43.9808-43.9808H650.24a44.0832 44.0832 0 0 1-31.1808-12.8512l-80.5376-80.5888a44.032 44.032 0 0 0-62.208 0L395.776 199.68a44.0832 44.0832 0 0 1-31.1296 12.9024H250.88a43.9296 43.9296 0 0 0-43.9808 43.9808v113.8176a44.0832 44.0832 0 0 1-12.9024 31.1296L113.3568 482.048a43.9296 43.9296 0 0 0 0 62.208L193.8944 624.64a44.0832 44.0832 0 0 1 12.9024 31.1296v113.8688a43.9808 43.9808 0 0 0 44.0832 44.1344h113.7664a44.0832 44.0832 0 0 1 31.1296 12.9024L476.16 907.2128a44.032 44.032 0 0 0 62.208 0l80.5376-80.5376a44.0832 44.0832 0 0 1 31.1296-12.9024h113.8688a44.032 44.032 0 0 0 43.9808-43.9808v-113.8688a44.0832 44.0832 0 0 1 13.056-31.2832z" fill="#7F9AFF" p-id="1153"></path><path d="M822.4256 775.3216V660.48a44.2368 44.2368 0 0 1 13.2096-31.4368L918.1184 547.84a44.0832 44.0832 0 0 0 0-62.8736l-82.4832-81.5616a44.2368 44.2368 0 0 1-13.2096-31.4368V256.9728a44.7488 44.7488 0 0 0-45.056-44.4416h-34.2528l-1.9968 6.144v150.2208a123.1872 123.1872 0 0 0 39.0144 89.7536l60.0576 56.32-66.56 72.96a123.2384 123.2384 0 0 0-32.4096 83.1488v90.2656h-108.2368a90.7776 90.7776 0 0 0-67.328 29.7984l-51.6608 57.344-72.1408-71.68a98.6112 98.6112 0 0 0-69.4784-28.5696H216.3712l-4.6592 47.5648a45.1072 45.1072 0 0 0 40.0384 24.1152h116.5824a45.3632 45.3632 0 0 1 31.8976 13.0048l82.432 81.3056a45.5168 45.5168 0 0 0 63.744 0l82.4832-81.3056a45.2096 45.2096 0 0 1 31.8464-13.0048h116.6336a44.7488 44.7488 0 0 0 45.056-44.5952z" fill="#5078FF" p-id="1154"></path><path d="M507.392 940.544a64.3072 64.3072 0 0 1-45.568-18.944l-80.5376-80.4352a23.3472 23.3472 0 0 0-16.64-6.912H250.88a64.5632 64.5632 0 0 1-64.4608-64.4608v-113.8688a23.808 23.808 0 0 0-7.2192-16.64l-80.3328-80.5376a64.5632 64.5632 0 0 1 0-91.1872L179.2 387.0208a23.808 23.808 0 0 0 6.912-16.64V256.512A64.5632 64.5632 0 0 1 250.88 192.0512h113.7664a23.552 23.552 0 0 0 16.64-6.912L461.824 104.6016a64.4608 64.4608 0 0 1 91.1872 0l80.5376 80.5376a23.552 23.552 0 0 0 16.6912 6.912h113.8688a64.5632 64.5632 0 0 1 64.4096 64.4608v113.8688a23.552 23.552 0 0 0 6.912 16.64l80.4864 80.5376a64.4608 64.4608 0 0 1 0 91.1872l-80.4864 80.5376a23.552 23.552 0 0 0-6.912 16.64v113.8688a64.5632 64.5632 0 0 1-64.4608 64.4608H650.24a23.2448 23.2448 0 0 0-16.64 6.912L552.96 921.6a64.3584 64.3584 0 0 1-45.568 18.944zM250.88 233.0112a23.552 23.552 0 0 0-23.5008 23.5008v113.8688a64.0512 64.0512 0 0 1-18.8928 45.6192L128 496.64a23.6032 23.6032 0 0 0 0 33.28l80.384 80.384a64.0512 64.0512 0 0 1 18.8928 45.6192v113.8688a23.552 23.552 0 0 0 23.6032 23.5008h113.7664a64.0512 64.0512 0 0 1 45.6192 18.8928l80.4864 80.5376a23.6032 23.6032 0 0 0 33.28 0l80.5376-80.5376a64.0512 64.0512 0 0 1 45.6192-18.8928h113.8688a23.552 23.552 0 0 0 23.5008-23.5008v-113.8688a64.0512 64.0512 0 0 1 18.8928-45.6192l80.5376-80.5376a23.6032 23.6032 0 0 0 0-33.28l-80.5376-80.4864a64.0512 64.0512 0 0 1-18.8928-45.6192V256.512a23.552 23.552 0 0 0-23.5008-23.5008H650.24a64.0512 64.0512 0 0 1-45.6192-18.8928l-80.5888-80.5376a23.4496 23.4496 0 0 0-33.2288 0L410.2656 214.1184a64.0512 64.0512 0 0 1-45.6192 18.8928z" fill="#211D38" p-id="1155"></path><path d="M237.2608 632.0128a12.7488 12.7488 0 0 1-9.0624-3.7376l-96.1536-96.1536a26.8288 26.8288 0 0 1 0-37.9904l81.2032-81.152a52.0192 52.0192 0 0 0 15.36-37.0176v-15.36a12.8 12.8 0 0 1 25.6 0v15.36a77.2096 77.2096 0 0 1-22.8352 55.0912l-81.2032 81.2032a1.28 1.28 0 0 0-0.4096 0.8704 1.4848 1.4848 0 0 0 0.3584 0.9216l96.1536 96.1536a12.8 12.8 0 0 1-9.0112 21.8112zM241.3568 315.3408a12.8 12.8 0 0 1-12.8-12.8V261.12a26.88 26.88 0 0 1 26.88-26.88h114.7904a52.0192 52.0192 0 0 0 37.0176-15.36l15.36-15.36a12.8 12.8 0 0 1 18.0736 18.0736l-15.36 15.36a77.2096 77.2096 0 0 1-55.0912 22.8352H255.4368a1.28 1.28 0 0 0-1.28 1.28v41.3696a12.8 12.8 0 0 1-12.8 12.9024zM469.504 187.5968a12.8 12.8 0 0 1-9.0624-21.8112l27.9552-28.0064a12.8 12.8 0 0 1 18.1248 18.1248l-28.0064 27.9552a12.544 12.544 0 0 1-9.0112 3.7376z" fill="#FFFFFF" p-id="1156"></path><path d="M479.3344 634.88a44.6976 44.6976 0 0 1-32.3072-13.8752l-90.0608-94.8736a20.48 20.48 0 1 1 29.696-28.2624l89.9072 94.6176a3.6864 3.6864 0 0 0 2.7648 1.1776 4.3008 4.3008 0 0 0 2.7136-1.1264l167.5776-174.08a20.48 20.48 0 1 1 29.5424 28.3648l-167.5776 174.08a44.8 44.8 0 0 1-32.256 13.9776z" fill="#211D38" p-id="1157"></path></svg> 